<svg id="Layer_1" data-name="Layer 1" xmlns="http://www.w3.org/2000/svg" xmlns:xlink="http://www.w3.org/1999/xlink" viewBox="0 0 256 256"><defs><style>.cls-1{fill:#fff;}.cls-2{fill:url(#radial-gradient);}.cls-3{fill:#808181;}.cls-4{fill:#1f3150;}.cls-5{fill:#3e5d9b;}.cls-6{fill:#42609d;}.cls-7{fill:#45619d;}.cls-8{fill:#3555a2;}.cls-9{fill:#1b3555;}.cls-10{fill:#ff5857;}.cls-11{fill:#fe1b5c;}.cls-12{fill:#57c67f;}.cls-13{fill:#43a071;}</style><radialGradient id="radial-gradient" cx="128" cy="3978" r="247.11" gradientTransform="matrix(1, 0, 0, -1.23, 14.01, 5011.37)" gradientUnits="userSpaceOnUse"><stop offset="0" stop-color="#3d5d9b"/><stop offset="0.21" stop-color="#3b5a96"/><stop offset="0.46" stop-color="#355288"/><stop offset="0.72" stop-color="#2c4471"/><stop offset="0.99" stop-color="#1f3150"/><stop offset="1" stop-color="#1e304f"/></radialGradient></defs><rect class="cls-1" x="1" y="1" width="254" height="254" rx="15.45"/><path class="cls-2" d="M239.55,255H122.29A27.29,27.29,0,0,1,95,227.71V209.45A35.45,35.45,0,0,0,59.55,174H27.23A26.23,26.23,0,0,1,1,147.77V16.45A15.45,15.45,0,0,1,16.45,1h223.1A15.45,15.45,0,0,1,255,16.45v223.1A15.45,15.45,0,0,1,239.55,255Z"/><path class="cls-1" d="M91.43,18.4H94l3.19,11.12L99.28,18.4h3.23L98.67,35.07h-3L92.76,23.43l-3.1,11.64h-3L82.86,18.4H86.1l2.14,11.12Z"/><path class="cls-1" d="M108.9,18.4h2l6.37,16.67h-3.38l-4-11.38-4,11.38h-3.38Zm-3.31,11h8.77v3h-8.77Z"/><path class="cls-1" d="M120,18.4h3.14V35.07H120Zm1.4,13.65h9.76v3h-9.76Z"/><path class="cls-1" d="M134.2,18.4h3.14V35.07H134.2Zm1.4,13.65h9.76v3H135.6Z"/><path class="cls-1" d="M148.36,18.4h3.14V35.07h-3.14Zm1.14,0h10v3h-10Zm0,6.88h8.76v3H149.5Zm0,6.77h10v3h-10Z"/><path class="cls-1" d="M161.26,18.4h12.22v3H161.26Zm4.54,1.37h3.14v15.3H165.8Z"/><path class="cls-1" d="M34.17,40.31h2.42V53.13H34.17Zm1.11,5.52h4.1a1.49,1.49,0,0,0,.76-.2,1.32,1.32,0,0,0,.51-.56,1.72,1.72,0,0,0,.19-.83,1.86,1.86,0,0,0-.18-.84,1.32,1.32,0,0,0-.51-.56,1.41,1.41,0,0,0-.77-.2h-4.1V40.31h4a4.39,4.39,0,0,1,2.12.49,3.41,3.41,0,0,1,1.41,1.38,4.49,4.49,0,0,1,0,4.12,3.45,3.45,0,0,1-1.41,1.37,4.39,4.39,0,0,1-2.12.49h-4Z"/><path class="cls-1" d="M50.1,40.31h1.53l4.9,12.82h-2.6l-3.07-8.76-3.07,8.76h-2.6Zm-2.55,8.44h6.74v2.33H47.55Z"/><path class="cls-1" d="M63.47,48.18v5H61.05v-5l-3.77-7.87h2.53l2.45,5.52,2.45-5.52h2.54Z"/><path class="cls-1" d="M78.18,40.31h3.18V53.13h-2.2v-10l.09.57-2.45,8H74.67l-2.45-7.78.08-.75v10H70.11V40.31h3.18L75.73,49Z"/><path class="cls-1" d="M86,40.31H88.4V53.13H86Zm.87,0h7.72v2.33H86.86Zm0,5.29h6.75v2.33H86.86Zm0,5.2h7.72v2.33H86.86Z"/><path class="cls-1" d="M98.59,40.31h3l4.77,9.82-.21.23v-10h2.31V53.12h-3l-4.76-9.67.22-.23v9.9H98.59Z"/><path class="cls-1" d="M112,40.31h9.4v2.33H112Zm3.49,1h2.41V53.13h-2.41Z"/><path class="cls-1" d="M133.13,53.08a8.2,8.2,0,0,1-1.65-.55,6.05,6.05,0,0,1-1.38-.86l1.12-2a5.47,5.47,0,0,0,1.71.94,6.21,6.21,0,0,0,2,.33,3.48,3.48,0,0,0,1.83-.4,1.25,1.25,0,0,0,.65-1.13h0a1.09,1.09,0,0,0-.29-.81,1.63,1.63,0,0,0-.76-.44,8.78,8.78,0,0,0-1.19-.26h-.1l-.2,0a12.62,12.62,0,0,1-2.13-.51,3.18,3.18,0,0,1-1.44-1.07,3.49,3.49,0,0,1-.59-2.16h0a3.93,3.93,0,0,1,.56-2.13,3.57,3.57,0,0,1,1.61-1.34,6.37,6.37,0,0,1,2.56-.46,6.14,6.14,0,0,1,1.4.16,7.22,7.22,0,0,1,1.41.45,7.66,7.66,0,0,1,1.31.73l-1,2a6.61,6.61,0,0,0-1.54-.79,4.67,4.67,0,0,0-1.55-.28,3.39,3.39,0,0,0-1.72.36,1.15,1.15,0,0,0-.61,1h0a1.22,1.22,0,0,0,.32.88,1.92,1.92,0,0,0,.78.47c.31.1.75.2,1.32.32h.14l.1,0,.1,0a10.51,10.51,0,0,1,2,.57,3.09,3.09,0,0,1,1.36,1.1,3.4,3.4,0,0,1,.55,2.06h0a3.75,3.75,0,0,1-.57,2.1,3.55,3.55,0,0,1-1.67,1.33,6.74,6.74,0,0,1-2.64.46A9,9,0,0,1,133.13,53.08Z"/><path class="cls-1" d="M143.65,40.31h2.41V53.13h-2.41Zm.87,0h7.71v2.33h-7.71Zm0,5.29h6.74v2.33h-6.74Zm0,5.2h7.71v2.33h-7.71Z"/><path class="cls-1" d="M156.24,40.3h2.42V53.13h-2.42Zm1,5.34h4.46a1.2,1.2,0,0,0,.65-.18,1.28,1.28,0,0,0,.44-.53,2.14,2.14,0,0,0,.16-.79,1.84,1.84,0,0,0-.16-.8,1.19,1.19,0,0,0-.43-.53,1.21,1.21,0,0,0-.66-.18h-4.46V40.3h4.65a3.53,3.53,0,0,1,1.86.48A3.1,3.1,0,0,1,165,42.12a4.74,4.74,0,0,1,0,4,3.24,3.24,0,0,1-1.24,1.35,3.67,3.67,0,0,1-1.86.47h-4.65Zm2.69,1.93,2.59-.4,3.45,6H163Z"/><path class="cls-1" d="M168.41,40.31h2.49l2.72,8.55,2.73-8.55h2.48l-4.26,12.82h-1.89Z"/><path class="cls-1" d="M184.55,53.13h-2.5V40.31h2.5Z"/><path class="cls-1" d="M190.87,52.7a3.66,3.66,0,0,1-1.58-1.63,5.57,5.57,0,0,1-.55-2.59V45a5.52,5.52,0,0,1,.55-2.58,3.74,3.74,0,0,1,1.58-1.64,5.29,5.29,0,0,1,2.51-.56,4.42,4.42,0,0,1,2.16.52,4.2,4.2,0,0,1,1.57,1.51A6.45,6.45,0,0,1,198,44.6h-2.5a3.31,3.31,0,0,0-.44-1.08,2.12,2.12,0,0,0-.71-.69,1.88,1.88,0,0,0-.94-.24,2.34,2.34,0,0,0-1.16.28,1.83,1.83,0,0,0-.72.81,3,3,0,0,0-.26,1.28v3.52a2.92,2.92,0,0,0,.26,1.28,1.83,1.83,0,0,0,.72.81,2.34,2.34,0,0,0,1.16.28,1.89,1.89,0,0,0,1-.24,1.92,1.92,0,0,0,.71-.68,3.07,3.07,0,0,0,.43-1.09H198a6.45,6.45,0,0,1-.87,2.39,4.13,4.13,0,0,1-1.57,1.51,4.36,4.36,0,0,1-2.15.52A5.17,5.17,0,0,1,190.87,52.7Z"/><path class="cls-1" d="M201.81,40.31h2.41V53.13h-2.41Zm.87,0h7.71v2.33h-7.71Zm0,5.29h6.74v2.33h-6.74Zm0,5.2h7.71v2.33h-7.71Z"/><path class="cls-1" d="M216.64,53.08a7.8,7.8,0,0,1-1.65-.55,6.05,6.05,0,0,1-1.38-.86l1.12-2a5.25,5.25,0,0,0,1.71.94,6.15,6.15,0,0,0,2,.33,3.51,3.51,0,0,0,1.84-.4,1.26,1.26,0,0,0,.65-1.13h0a1.13,1.13,0,0,0-.29-.81,1.68,1.68,0,0,0-.76-.44,8.63,8.63,0,0,0-1.2-.26h-.1l-.19,0a12.38,12.38,0,0,1-2.13-.51,3.08,3.08,0,0,1-1.44-1.07,3.49,3.49,0,0,1-.59-2.16h0a3.93,3.93,0,0,1,.55-2.13,3.54,3.54,0,0,1,1.62-1.34,6.33,6.33,0,0,1,2.56-.46,6.27,6.27,0,0,1,1.4.16,7.34,7.34,0,0,1,2.71,1.18l-1,2a6.48,6.48,0,0,0-1.55-.79,4.57,4.57,0,0,0-1.54-.28,3.36,3.36,0,0,0-1.72.36,1.15,1.15,0,0,0-.61,1h0a1.21,1.21,0,0,0,.31.88,2,2,0,0,0,.79.47c.31.1.75.2,1.31.32h.14l.11,0,.1,0a10.51,10.51,0,0,1,2,.57,3.14,3.14,0,0,1,1.36,1.1,3.4,3.4,0,0,1,.55,2.06h0a3.75,3.75,0,0,1-.57,2.1,3.58,3.58,0,0,1-1.68,1.33,6.74,6.74,0,0,1-2.64.46A8.84,8.84,0,0,1,216.64,53.08Z"/><path class="cls-1" d="M138.55,219.4c0-2.53,0-5.05,0-7.58,0-.79,0-1.42,1.1-.95a8,8,0,0,0,4.85,0,11.15,11.15,0,0,1,7.73.66,1.85,1.85,0,0,0,1.8-.16,12.85,12.85,0,0,1,7.45-.65c3.26.58,5.08,2.81,5.15,6.19.08,3.93,0,7.87,0,11.8,0,1.05-.37,1.33-1.37,1.19-2.75-.37-3.47-1.17-3.48-4s0-5.64,0-8.46c0-2.41-1-3.42-3.27-3.38-2.53,0-3.53,1-3.54,3.5,0,3.64,0,7.28,0,10.92,0,1.37-.49,1.59-1.68,1.34-2.64-.54-3.17-1.14-3.17-3.89v-8.1c0-2.91-.92-3.81-3.78-3.76s-3,.16-3,3c0,3.76-.06,7.52,0,11.28,0,1.44-.5,1.7-1.77,1.43-2.6-.54-3.08-1.08-3.08-3.76v-6.7"/><path class="cls-1" d="M109.89,222.31c.58,2.66,2.55,3.32,4.61,3.72a18,18,0,0,0,5.62.11,3.78,3.78,0,0,0,3.61-3.27c.18-1.83-.77-3.13-3-3.72s-4.6-.89-6.88-1.45c-4-1-5.78-3-5.83-6.45-.06-3.91,1.89-6.47,5.86-7.47a20.57,20.57,0,0,1,10.79.22c3.47,1,4.27,3.71,2.13,7.24-.67-2.82-2.78-3.51-5.16-3.89a13.83,13.83,0,0,0-5.94.12,3,3,0,0,0-2.55,2.77c-.11,1.69,1,2.49,2.36,2.84,1.87.46,3.78.77,5.69,1.09,5.19.89,7.56,3.33,7.56,7.86a7.23,7.23,0,0,1-5.76,7.44,19.13,19.13,0,0,1-10.94-.2c-3.62-1.14-4.38-3.55-2.15-7"/><path class="cls-1" d="M174.11,203.63c1.7.08,3.4.09,5.09.26,5.85.59,8.66,4.17,7.91,10-.62,4.81-3.56,7.14-9.45,7.51-1.21.07-2.79-.56-3.53.33s-.18,2.48-.24,3.76a10.54,10.54,0,0,1,0,2.11c-.22.82.92,2.31-1,2.38-2.22.09-3.82-1-3.93-2.63,0-.41,0-.82,0-1.23,0-6.93,0-13.86,0-20.79,0-1.35.38-1.77,1.68-1.66s2.35,0,3.53,0v-.08m-.23,8.88v1.93c0,3.42,0,3.41,3.49,3.24,1.64-.09,3.18-.39,4.11-1.92a5.3,5.3,0,0,0-4.36-8.34c-3.24-.16-3.24-.16-3.24,3Z"/><path class="cls-1" d="M244,230a11.59,11.59,0,0,0-5.47-.17,14.38,14.38,0,0,1-6.46-.18,5.06,5.06,0,0,1-3.95-4.81,4.89,4.89,0,0,1,3.45-5.33c1.75-.66,3.62-1,5.4-1.58.94-.31,2.3-.47,2.19-1.86-.13-1.54-1.43-1.84-2.73-1.94-3.53-.27-5.56.9-6.41,3.7-2.31-2.51-1.77-5.37,1.35-6.55a12.74,12.74,0,0,1,9-.06,5.15,5.15,0,0,1,3.66,5.24c0,4.46,0,8.92,0,13.54m-4.59-9.38c-1.69,1-3.38,1-4.88,1.65s-2.2,2.41-1.14,3.51c1.48,1.53,3.34,1,5.11.65,1.51-.32.8-1.58.88-2.45a33.49,33.49,0,0,0,0-3.36"/><path class="cls-1" d="M189.71,218c-2.36-3.18-1.59-5.84,1.94-6.91a13.57,13.57,0,0,1,8,0,5.19,5.19,0,0,1,4.08,4.95c.13,4.62,0,9.25,0,14a13.64,13.64,0,0,0-6-.08,13.36,13.36,0,0,1-5.93-.23c-2.53-.77-3.89-2.38-4-4.74-.13-2.8.86-4.45,3.49-5.46,1.52-.58,3.14-.92,4.71-1.38a11.56,11.56,0,0,0,1.66-.56c.56-.27,1.21-.53,1.18-1.35a1.9,1.9,0,0,0-1.12-1.66c-2.82-1.53-7.06.19-8.08,3.44m9.45,2.82c-.92.29-1.69.54-2.47.77s-1.59.4-2.35.68c-1.31.48-2.08,1.36-1.65,2.84s2.16,2,4.38,1.65c1.48-.21,2.36-.71,2.12-2.44a25.26,25.26,0,0,1,0-3.5"/><path class="cls-1" d="M225.49,217.24a6.72,6.72,0,0,0-8.17-2.68,1.8,1.8,0,0,0-1.17,1.8c.07.85.7,1.2,1.43,1.32,1.62.27,3.25.45,4.87.73,3.3.58,5,2.21,5.29,5a5.39,5.39,0,0,1-4.07,6.16,15.29,15.29,0,0,1-9-.1c-3.45-1.12-4-3.69-1.42-6.39a6.49,6.49,0,0,0,7.92,3.18c1.11-.36,1.94-1,1.91-2.22s-1.12-1.57-2.11-1.75c-1.67-.3-3.37-.42-5-.73-3-.56-4.41-2-4.57-4.72a5.43,5.43,0,0,1,4.11-5.83,15.5,15.5,0,0,1,8,0c3.59.91,4.34,3.35,2,6.28"/><path class="cls-1" d="M135.74,221.19c0,2.52,0,5.05,0,7.57,0,1.08-.41,1.3-1.36,1.18-2.73-.34-3.49-1.18-3.49-4,0-4.58.05-9.16,0-13.74,0-1.4.46-1.72,1.75-1.46,2.61.54,3.11,1.09,3.11,3.75v6.69"/><path class="cls-1" d="M210.45,221.1c0,2.53,0,5.05,0,7.57,0,1.17-.41,1.41-1.47,1.24-2.76-.43-3.4-1.13-3.4-3.87,0-4.64,0-9.28,0-13.91,0-1.31.4-1.63,1.64-1.38,2.72.54,3.23,1.09,3.23,3.84v6.51"/><path class="cls-1" d="M208.51,208.11c-2.62,0-2.7-.23-2.87-2.47S206.8,204,208,204c2.17,0,2.27.26,2.46,2.38s-.94,1.88-1.9,1.77"/><path class="cls-1" d="M133.83,208.1c-2.65,0-2.59-.09-2.78-2.27-.16-1.84.74-1.94,2.14-1.89,2.26.08,2.35.25,2.54,2.33.18,1.91-.77,2-1.9,1.83"/><path class="cls-3" d="M54.11,240.94c-1.31-1.82-2.54-3.7-3.66-5.63-.4-.68-.63-.35-1,0a2.57,2.57,0,0,1-3.88.27c-.78-.64-1.51-1.34-2.31-2-.57-.44-.49-.74,0-1.21,1.2-1.19,2.33-2.44,3.5-3.66.17-.19.45-.41.19-.65s-.43.11-.58.27c-1.13,1.16-2.27,2.32-3.35,3.53-.55.62-.93.76-1.62.12-1.53-1.45-3.14-2.82-4.79-4.14-.67-.54-.62-.86-.07-1.42,1.94-2,3.84-4,5.75-6a9,9,0,0,0,.71-.8l0-.35c-.09-.14-.23-.08-.33,0s-.32.32-.48.49q-3.06,3.2-6.13,6.4c-.35.37-.63.59-1.11.15-1.28-1.15-2.62-2.24-3.89-3.4a2.19,2.19,0,0,1-.1-3.42c1.09-1.16,2.25-2.26,3.27-3.48a3.83,3.83,0,0,1,3.44-1.56,12.14,12.14,0,0,0,2.24-.17c.25,0,.71.14.7-.27s-.46-.27-.72-.26a23.06,23.06,0,0,1-3.49.17,19.16,19.16,0,0,1,2.29-2.5,1,1,0,0,0,.27-1.26,48.56,48.56,0,0,1-3-11.15,10.63,10.63,0,0,1,.53-6,2.6,2.6,0,0,1,3.11-1.53,17.07,17.07,0,0,1,2.25.91l.12-.11a8.66,8.66,0,0,0-3.54-2.5c-2.75-1.1-4.89-.1-5.87,2.69a15,15,0,0,0-.48,6.55,50.33,50.33,0,0,0,2.28,10,1,1,0,0,1-.27,1.2c-1.84,1.88-3.64,3.8-5.46,5.7L17.41,227.74c-1.19,1.25-1.13,2.4.16,3.52L34.16,245.6l.14.1L38.16,249a2.53,2.53,0,0,0,3.32,0c.82-.74,2.24-2.2,3.45-3.45l.1-.09c1.85-2,3.73-3.9,5.56-5.87.43-.47.7-.5,1.19-.09a14.7,14.7,0,0,0,2.43,1.83A1.36,1.36,0,0,0,54.11,240.94Z"/><path class="cls-4" d="M50.48,183.65c.33.87,1.06,1.51,1.39,2.4a6.7,6.7,0,0,1-.73,5.75,4.71,4.71,0,0,1-1.26,1.8l-7.49-4.72c-.26-.17-.55-.28-.53-.72.14-3.14,3.3-6.56,6.84-5.51a3,3,0,0,1,1.21.59l.22.17h0a.29.29,0,0,0,.36.25Z"/><path class="cls-5" d="M50.48,183.65a.28.28,0,0,1-.35-.25A.35.35,0,0,1,50.48,183.65Z"/><path class="cls-5" d="M50.14,183.41l-.23-.17Z"/><polygon class="cls-3" points="41.94 192.38 42.04 192.56 41.82 192.49 41.94 192.38"/><path class="cls-5" d="M72.17,202.2a98.44,98.44,0,0,0-15.18-14,61.53,61.53,0,0,0-6.51-4.59c.33.88,1.06,1.51,1.39,2.4a6.7,6.7,0,0,1-.73,5.75,4.71,4.71,0,0,1-1.26,1.8,5.58,5.58,0,0,1-.35.58c-2.66,3.25-5.75,6.09-8.59,9.18-.41.45-.57.18-.75-.17-.61-1.24-1.23-2.47-1.85-3.73a.5.5,0,0,0-.14.59c.22,1.14.39,2.3.7,3.42a127,127,0,0,0,10.22,25.71,77.8,77.8,0,0,0,7.71,12.61,12.75,12.75,0,0,0,4.08,3.72c2.35,1.19,4.42.34,5.24-2.16a12.27,12.27,0,0,0,0-6.53c0-.2-.12-.39-.46-.26,0,.32,0,.68,0,1a8.55,8.55,0,0,1-.79,3.48,1.47,1.47,0,0,1-2.25.74A6.72,6.72,0,0,1,61,240.62a32.78,32.78,0,0,1-4.84-6.33c-.27-.42-.07-.61.19-.89,4-4.11,7.91-8.25,11.9-12.35a24.24,24.24,0,0,0,5.56-7.68C75.45,209.33,75.11,205.63,72.17,202.2Zm-24.41,7.53a8.87,8.87,0,1,1,8.82,9.07A8.85,8.85,0,0,1,47.76,209.73Z"/><path class="cls-6" d="M55,211.53a10.53,10.53,0,0,1,4.09.83,1.54,1.54,0,0,1-2,.92,5.52,5.52,0,0,0-2.95-.38c-.48.11-.73.28-.24.73s1.06,1,1.54,1.48c.19.21.78.39.3.81s-.82.74-1.37.28c-.4-.33-.75-.71-1.12-1.08-1.22-1.21-2.42-2.44-3.66-3.63-.4-.39-.4-.63,0-1,.6-.54,1.13-1.16,1.73-1.7,1.18-1.06,2-1.19,2.94-.52C55.43,209.09,55.64,210,55,211.53Zm-1-1a1.31,1.31,0,0,0-1.17-1.21c-.44,0-1.75,1.06-1.72,1.4a7.1,7.1,0,0,0,1.58,1.52A3.4,3.4,0,0,0,54,210.54Z"/><path class="cls-7" d="M59.43,206.43a2.3,2.3,0,0,0-2.27,1.17.59.59,0,0,0,0,.8c.27.31.53.14.77,0,.48-.33.93-.71,1.42-1a1.58,1.58,0,0,1,2.12.21,1.64,1.64,0,0,1,.3,2.13,4.55,4.55,0,0,1-2.14,2,1,1,0,0,1-1.25-.17.75.75,0,0,1-.25-.71c.11-.34.38-.07.58-.09a2.29,2.29,0,0,0,1.83-1.28.63.63,0,0,0-.13-.87c-.29-.25-.57-.1-.8.06-.45.31-.87.68-1.33,1a1.48,1.48,0,0,1-2-.06,1.64,1.64,0,0,1-.37-2.12,4.36,4.36,0,0,1,1.81-1.85C58.57,205.12,59,205.34,59.43,206.43Z"/><path class="cls-7" d="M64,207.36c-.2.39-.44.8-.88.8a.91.91,0,0,1-.85-.78c0-.33.38-.68.77-.74S63.71,207.05,64,207.36Z"/><path class="cls-1" d="M162.1,170H87.9a12.16,12.16,0,0,1-12.15-12.15v-55.7a12.16,12.16,0,0,1,8.36-11.54A7.53,7.53,0,0,1,88.57,81l41.61-15.55a7.55,7.55,0,0,1,9.69,4.42l3.4,9.11H156a7.75,7.75,0,0,1,7.74,7.74v3.37a12.27,12.27,0,0,1,5.15,2,12.2,12.2,0,0,1,4.8,6.46,11.88,11.88,0,0,1,.55,3.61v12.73a8.57,8.57,0,0,1,6,8.16V137a8.57,8.57,0,0,1-6,8.16v12.73a11.88,11.88,0,0,1-.55,3.61,12.2,12.2,0,0,1-4.8,6.46,11.83,11.83,0,0,1-2.07,1.12A12,12,0,0,1,162.1,170ZM87.9,98a4.15,4.15,0,0,0-4.15,4.15v55.7A4.15,4.15,0,0,0,87.9,162h74.2a4.17,4.17,0,0,0,1.61-.32,4.43,4.43,0,0,0,.71-.39,4.17,4.17,0,0,0,1.64-2.2,4,4,0,0,0,.19-1.24V137.5h5.46a.54.54,0,0,0,.54-.54V123a.54.54,0,0,0-.54-.54h-5.46V102.15a4.2,4.2,0,0,0-.94-2.64,4.22,4.22,0,0,0-.89-.8,4.43,4.43,0,0,0-.71-.39A4.17,4.17,0,0,0,162.1,98h-6.35V87h-18l-5.18-13.87L91.8,88.35,95.41,98Z"/><rect class="cls-8" x="79.75" y="94" width="90.5" height="72" rx="8.15"/><path class="cls-9" d="M162.1,94H125.36v72H162.1a8.15,8.15,0,0,0,8.15-8.15v-55.7A8.15,8.15,0,0,0,162.1,94Z"/><path class="cls-8" d="M156.75,118.5h15a4.54,4.54,0,0,1,4.54,4.54V137a4.54,4.54,0,0,1-4.54,4.54h-15a11.5,11.5,0,0,1-11.5-11.5v0A11.5,11.5,0,0,1,156.75,118.5Z"/><circle class="cls-1" cx="156.75" cy="130" r="3"/><path class="cls-10" d="M89.65,94H143a3.54,3.54,0,0,0,.42-3.26l-7.27-19.45a3.52,3.52,0,0,0-4.54-2.07L90,84.77a3.54,3.54,0,0,0-2.07,4.54Z"/><path class="cls-11" d="M142.93,94a3.64,3.64,0,0,0,.43-3.35l-7.17-19.18a3.63,3.63,0,0,0-4.66-2.13l-21.61,8.08L116.84,94Z"/><path class="cls-12" d="M159.75,94V86.74A3.75,3.75,0,0,0,156,83H123.49a3.75,3.75,0,0,0-3.74,3.74V94Z"/><path class="cls-13" d="M159.75,94V86.74A3.75,3.75,0,0,0,156,83H139.92V94Z"/></svg>